<svg xmlns="http://www.w3.org/2000/svg" version="1.1" xmlns:xlink="http://www.w3.org/1999/xlink" xmlns:svgjs="http://svgjs.dev/svgjs" width="1000" height="1000" viewBox="0 0 1000 1000"><rect width="1000" height="1000" fill="#000000"></rect><g transform="matrix(0.7,0,0,0.7,149.57575757575756,282.1265587044535)"><svg viewBox="0 0 396 247" data-background-color="#ffffff" preserveAspectRatio="xMidYMid meet" height="623" width="1000" xmlns="http://www.w3.org/2000/svg" xmlns:xlink="http://www.w3.org/1999/xlink"><defs></defs><g id="tight-bounds" transform="matrix(1,0,0,1,0.2400000000000091,-0.09999999999999432)"><svg viewBox="0 0 395.52 247.2" height="247.2" width="395.52"><g><svg></svg></g><g><svg viewBox="0 0 395.52 247.2" height="247.2" width="395.52"><g transform="matrix(1,0,0,1,75.54432,86.17939987752602)"><svg viewBox="0 0 244.43135999999998 74.84120024494794" height="74.84120024494794" width="244.43135999999998"><g><svg viewBox="0 0 244.43135999999998 74.84120024494794" height="74.84120024494794" width="244.43135999999998"><g><svg viewBox="0 0 244.43135999999998 74.84120024494794" height="74.84120024494794" width="244.43135999999998"><g><svg viewBox="0 0 244.43135999999998 74.84120024494794" height="74.84120024494794" width="244.43135999999998"><g><svg viewBox="0 0 244.43135999999998 74.84120024494794" height="74.84120024494794" width="244.43135999999998"><g><svg viewBox="0 0 244.43135999999998 74.84120024494794" height="74.84120024494794" width="244.43135999999998"><g transform="matrix(1,0,0,1,0,0)"><svg width="244.43135999999998" viewBox="1.9000000953674316 -25 81.6500015258789 25" height="74.84120024494794" data-palette-color="#57c4e5"><path d="M14.7-7.25L14.7-6.25Q14.7-3.4 14.95 0L14.95 0 3.95 0Q1.9-7.95 1.9-16.9L1.9-16.9Q1.9-21.45 2.45-25L2.45-25 29.55-25Q31-19.35 31.15-11.55L31.15-11.55Q23.75-8.25 14.7-7.25L14.7-7.25ZM14.75-10.7L14.75-10.7Q17.95-11.1 20.1-12.3L20.1-12.3Q19.3-17.6 15.8-21.7L15.8-21.7Q15-16.75 14.75-10.7ZM66.1-22.7L66.1-22.7Q66.1-24.05 65.7-25L65.7-25 79.95-25Q81.75-20.2 82.62-13.25 83.5-6.3 83.55 0L83.55 0 72 0Q71.65-9 69.05-17.35L69.05-17.35Q64.7-8.85 64.35 0L64.35 0 54.55 0Q53.25-9.8 49.55-17.4L49.55-17.4Q46.85-11.05 46.85-5.6L46.85-5.6Q46.85-2.65 47.55 0L47.55 0 35.4 0Q35.05-2.05 35.05-5.43 35.05-8.8 36.05-12.2L36.05-12.2Q39.6-13.25 42.87-15.65 46.15-18.05 47.7-20.9L47.7-20.9Q46.4-23.05 44.95-25L44.95-25 60.75-25Q62.65-19.85 63.6-13.8L63.6-13.8Q66.1-18.45 66.1-22.7Z" opacity="1" transform="matrix(1,0,0,1,0,0)" fill="#ffffff" class="undefined-text-0" data-fill-palette-color="primary" id="text-0"></path></svg></g></svg></g></svg></g></svg></g></svg></g></svg></g></svg></g><g><path d="M151.089 178.689A122.216 122.216 0 1 0 151.089 68.511L157.838 68.511A115.466 115.466 0 1 1 157.838 178.689L151.089 178.689" fill="#57c4e5" stroke="transparent" data-fill-palette-color="tertiary"></path></g></svg></g></svg><rect width="395.52" height="247.2" fill="none" stroke="none" visibility="hidden"></rect></g></svg></g></svg>